# xmcd
#
# Track frame offsets:
#  225
#  17137
#  29319
#  46575
#  58420
#  68844
#  82504
#  98302
#  111717
#  121355
#  131919
#  143023
#  154287
#  170527
#  182840
#  193798
#
# Disc length: 2848 seconds
#
# Revision: 3
# Processed by: cddbd v1.5.2PL0 Copyright (c) Steve Scherf et al.
# Submitted via: Collectorz.com_Music_Collector 6.11
#
DISCID=db0b1d10
DTITLE=Eric Clapton - Eric Clapton (3cd Box) [CD2)
DYEAR=1997
DGENRE=Blues
TTITLE0=(They Call It) Stormy Monday Blues (with Jack Bruce and Ginger
TTITLE1=Stroll On (The Yardbirds)
TTITLE2=Big Boss Man (feat. Jack Bruce and Ginger Baker)
TTITLE3=Steeled Blues (The Yardbirds)
TTITLE4=Putty in Your Hands
TTITLE5=Jeff's Blues (with Jeff Beck)
TTITLE6=Train Kept a Rollin' (with The Yardbirds)
TTITLE7=Still I'm Sad (The Yardbirds)
TTITLE8=Tribute to Elmore (with Jimmy Page)
TTITLE9=West Coast Idea (with The Yardbirds)
TTITLE10=Heart Full of Soul (The Yardbirds)
TTITLE11=Miles Road (with The Yardbirds)
TTITLE12=Little Red Rooster
TTITLE13=Highway 49 (with Jimmy Page)
TTITLE14=Shapes of Things (The Yardbirds)
TTITLE15=Wang-Dang-Doodle (with Jimmy Page)
EXTD=
EXTT0=
EXTT1=
EXTT2=
EXTT3=
EXTT4=
EXTT5=
EXTT6=
EXTT7=
EXTT8=
EXTT9=
EXTT10=
EXTT11=
EXTT12=
EXTT13=
EXTT14=
EXTT15=
PLAYORDER=
